<svg xmlns="http://www.w3.org/2000/svg" viewBox="0 0 400 300" fill="none">
  <!-- Background Blob -->
  <path d="M320 180C320 250 250 290 180 290C110 290 30 240 50 160C70 80 150 40 220 50C290 60 320 110 320 180Z" fill="#84cc16" fill-opacity="0.2"/>
  
  <!-- Face -->
  <g transform="translate(140, 80)">
    <path d="M0 50 C0 10 120 10 120 50 L120 100 C120 160 0 160 0 100 Z" fill="#1A1A1A" stroke="white" stroke-width="6"/>
    <!-- Eyes -->
    <path d="M35 60 L45 60" stroke="white" stroke-width="6" stroke-linecap="round"/>
    <path d="M75 60 L85 60" stroke="white" stroke-width="6" stroke-linecap="round"/>
    <!-- Nose -->
    <path d="M60 65 L55 85 L65 85" stroke="white" stroke-width="4" stroke-linecap="round" fill="none"/>
    <!-- Mouth -->
    <path d="M45 110 Q60 120 75 110" stroke="white" stroke-width="4" stroke-linecap="round"/>
  </g>

  <!-- Viewfinder Frame -->
  <g stroke="#84cc16" stroke-width="8" stroke-linecap="round" fill="none">
    <!-- Top Left -->
    <path d="M100 60 L80 60 L80 90" />
    <!-- Top Right -->
    <path d="M300 60 L320 60 L320 90" />
    <!-- Bottom Left -->
    <path d="M100 240 L80 240 L80 210" />
    <!-- Bottom Right -->
    <path d="M300 240 L320 240 L320 210" />
  </g>
</svg>
